<svg id="Layer_1" data-name="Layer 1" xmlns="http://www.w3.org/2000/svg" viewBox="0 0 20 368"><defs><style>.cls-1{fill:#29b866;}.cls-2{fill:#b3b3b3;}.cls-3{fill:#43525c;}.cls-4{fill:#2ecc71;}</style></defs><title>icons</title><path class="cls-1" d="M10,82a8,8,0,1,1-8,8,8,8,0,0,1,8-8m0-2A10,10,0,1,0,20,90,10,10,0,0,0,10,80h0ZM9.16,92.21a3.26,3.26,0,0,1,.22-1.38,4,4,0,0,1,1-1,6.14,6.14,0,0,0,.84-1,1.84,1.84,0,0,0,.31-1,1.39,1.39,0,0,0-.36-1,1.35,1.35,0,0,0-1-.36,1.5,1.5,0,0,0-1,.31,1.09,1.09,0,0,0-.39.91H7.2l0,0A2.23,2.23,0,0,1,8,85.67,3.29,3.29,0,0,1,10.13,85a3.17,3.17,0,0,1,2.22.72,2.58,2.58,0,0,1,.8,2,2.79,2.79,0,0,1-.5,1.59,6.16,6.16,0,0,1-1.26,1.34,1.55,1.55,0,0,0-.48.64,3.08,3.08,0,0,0-.1.89H9.16ZM10.83,95H9.15V93.42h1.68V95Z" transform="translate(0 -2)"/><polygon class="cls-1" points="6 306 2 302 0 302 6 308 12 302 10 302 6 306"/><path class="cls-1" d="M10,60A10,10,0,1,0,20,70,10,10,0,0,0,10,60Zm0,4a3,3,0,1,1-3,3A3,3,0,0,1,10,64Zm6,11.28a8,8,0,0,1-12,0v-1a1.19,1.19,0,0,1,.66-1.06,11.92,11.92,0,0,1,10.67,0A1.19,1.19,0,0,1,16,74.32v1Z" transform="translate(0 -2)"/><path class="cls-1" d="M12.84,131.5L11.6,131a6.65,6.65,0,1,0-.59.59l0.49,1.24L16.66,138,18,136.66Zm-2.66-1.74L10,130l-0.22.2A4.75,4.75,0,1,1,10.18,129.76Z" transform="translate(0 -2)"/><path class="cls-1" d="M5.8,55H17V42H5.4A2.4,2.4,0,0,0,3,44.4V55.6A2.4,2.4,0,0,0,5.4,58H17V56.6H5.8A0.8,0.8,0,0,1,5.8,55ZM7,45.4h7V47H7V45.4Zm0,3h7V50H7V48.4Z" transform="translate(0 -2)"/><path class="cls-1" d="M11,33.11L15,37V23H8.59A1.57,1.57,0,0,0,7,24.55V37Z" transform="translate(0 -2)"/><path class="cls-1" d="M18,6a2,2,0,0,0-2-2H11L9,2H4A2,2,0,0,0,2,4V14a2,2,0,0,0,2,2H14.59L12,13.43A4,4,0,0,1,10,14a4,4,0,1,1,4-4,4,4,0,0,1-.57,2l3.65,3.65A2,2,0,0,0,18,14V6Z" transform="translate(0 -2)"/><circle class="cls-1" cx="10" cy="8" r="2"/><path class="cls-1" d="M10,232.14a3,3,0,0,0,3-3V223a3,3,0,0,0-6,0v6.14A3,3,0,0,0,10,232.14Z" transform="translate(0 -2)"/><path class="cls-1" d="M16.85,229.14a1,1,0,0,0-2,0,4.85,4.85,0,0,1-9.71,0,1,1,0,0,0-2,0A6.86,6.86,0,0,0,9,235.92V238a1,1,0,0,0,2,0v-2.08A6.86,6.86,0,0,0,16.85,229.14Z" transform="translate(0 -2)"/><path class="cls-1" d="M6,242.05v0.7c0,0.61,1.72,1.05,3,1.05s3-.54,3-1.05v-0.7a0.6,0.6,0,0,0,.49-0.35c0-.39-1.57-0.7-3.5-0.7s-3.5.31-3.5,0.7A0.6,0.6,0,0,0,6,242.05Z" transform="translate(0 -2)"/><path class="cls-1" d="M9,245.2c-1.29,0-3.47-.7-3.47-1a3,3,0,0,0,0,.35,3.5,3.5,0,0,0,7,0,3,3,0,0,0,0-.35C12.47,244.5,10.29,245.2,9,245.2Z" transform="translate(0 -2)"/><path class="cls-1" d="M7,251.5a2.57,2.57,0,0,1,.36-1.3,13.91,13.91,0,0,0-4.58,1.37A1.39,1.39,0,0,0,2,252.81V255H7v-3.5Z" transform="translate(0 -2)"/><path class="cls-1" d="M17.63,250H9.38A1.44,1.44,0,0,0,8,251.5v6A1.44,1.44,0,0,0,9.38,259h8.25A1.44,1.44,0,0,0,19,257.5v-6A1.44,1.44,0,0,0,17.63,250Zm0,3-4.12,3-4.12-3v-1.5l4.13,3,4.13-3V253Z" transform="translate(0 -2)"/><polygon class="cls-2" points="15.99 183.07 14.93 182.01 10 186.95 5.17 182.12 4.11 183.18 8.94 188.01 4.01 192.94 5.07 194 10 189.07 14.83 193.89 15.89 192.83 11.06 188.01 15.99 183.07"/><rect class="cls-1" x="1" y="102" width="18" height="2"/><rect class="cls-1" x="1" y="107" width="18" height="2"/><rect class="cls-1" x="1" y="112" width="18" height="2"/><polygon class="cls-1" points="5 325 0 320 10 320 5 325"/><polygon class="cls-1" points="5 315 2 312 1 312 5 316 9 312 8 312 5 315"/><path class="cls-1" d="M9.91,275.33a0.77,0.77,0,0,0-.82,0l-4.8,3.34c-0.23.16-.35,0.07-0.27-0.19l1.69-5.6a0.77,0.77,0,0,0-.25-0.78L0.8,268.56c-0.22-.17-0.17-0.31.1-0.31l5.85-.12a0.77,0.77,0,0,0,.66-0.48l1.92-5.53c0.09-.26.24-0.26,0.33,0l1.92,5.53a0.77,0.77,0,0,0,.66.48l5.85,0.12c0.27,0,.32.15,0.1,0.31l-4.66,3.54a0.77,0.77,0,0,0-.25.78l1.69,5.6c0.08,0.26,0,.35-0.27.19Z" transform="translate(0 -2)"/><path class="cls-2" d="M10,282.36h0M9.5,283.93l1.38,4a1.51,1.51,0,0,0,1.36,1L16.43,289l-3.34,2.53a1.51,1.51,0,0,0-.52,1.6l1.21,4-3.44-2.4a1.52,1.52,0,0,0-1.68,0l-3.44,2.4,1.21-4a1.51,1.51,0,0,0-.52-1.6L2.57,289l4.19-.09a1.51,1.51,0,0,0,1.36-1l1.38-4m0-2a0.23,0.23,0,0,0-.16.19l-1.92,5.53a0.77,0.77,0,0,1-.66.48l-5.85.12c-0.27,0-.32.15-0.1,0.31l4.66,3.54a0.77,0.77,0,0,1,.25.78L4,298.48c-0.05.17,0,.27,0.08,0.27a0.36,0.36,0,0,0,.19-0.08l4.8-3.34a0.77,0.77,0,0,1,.82,0l4.8,3.34a0.36,0.36,0,0,0,.19.08c0.09,0,.13-0.1.08-0.27l-1.69-5.6a0.77,0.77,0,0,1,.25-0.78l4.66-3.54c0.22-.17.17-0.31-0.1-0.31l-5.85-.12a0.77,0.77,0,0,1-.66-0.48l-1.92-5.53a0.23,0.23,0,0,0-.16-0.19h0Z" transform="translate(0 -2)"/><path class="cls-1" d="M7,164.05v0.7a8,8,0,0,0,3,1.05,8,8,0,0,0,3-1.05v-0.7a0.6,0.6,0,0,0,.49-0.35c0-.39-1.57-0.7-3.5-0.7s-3.5.31-3.5,0.7A0.6,0.6,0,0,0,7,164.05Z" transform="translate(0 -2)"/><path class="cls-1" d="M16.23,173.57a13.91,13.91,0,0,0-12.45,0A1.39,1.39,0,0,0,3,174.81V177H17v-2.19A1.39,1.39,0,0,0,16.23,173.57Z" transform="translate(0 -2)"/><path class="cls-1" d="M10,167.2a7.45,7.45,0,0,1-3.47-1,3,3,0,0,0,0,.35,3.5,3.5,0,0,0,7,0,3,3,0,0,0,0-.35A7.45,7.45,0,0,1,10,167.2Z" transform="translate(0 -2)"/><path class="cls-1" d="M16.5,149.44L11.06,144v3.12c-5.62,0-8.56,5.47-8.56,7.77a8.59,8.59,0,0,1,7-3.11h1.56v3.12Z" transform="translate(0 -2)"/><path class="cls-1" d="M16.75,203H3.25A2.21,2.21,0,0,0,1,205.17v8.67A2.21,2.21,0,0,0,3.25,216h13.5A2.21,2.21,0,0,0,19,213.83v-8.67A2.21,2.21,0,0,0,16.75,203Zm0,4.33L10,211.67l-6.75-4.33v-2.17L10,209.5l6.75-4.33v2.17Z" transform="translate(0 -2)"/><circle class="cls-3" cx="10" cy="340" r="3"/><path class="cls-3" d="M10,335a12,12,0,0,0-10,5.34l1.59,1.59a9.83,9.83,0,0,1,16.82,0L20,340.34A12,12,0,0,0,10,335Z" transform="translate(0 -2)"/><path class="cls-4" d="M20,352v12a2,2,0,0,1-2,2H4l-4,4V352a2,2,0,0,1,2-2H18A2,2,0,0,1,20,352Zm-4,2H4v2H16v-2Zm0,4H4v2H16v-2Z" transform="translate(0 -2)"/></svg>