<?xml version="1.0" encoding="utf-8"?>
<!-- Generator: Adobe Illustrator 19.2.0, SVG Export Plug-In . SVG Version: 6.00 Build 0)  -->
<svg version="1.1" id="Layer_1" xmlns="http://www.w3.org/2000/svg" xmlns:xlink="http://www.w3.org/1999/xlink" x="0px" y="0px"
	 viewBox="0 0 20 368" style="enable-background:new 0 0 20 368;" xml:space="preserve">
<style type="text/css">
	.st0{fill:#FFFFFF;}
	.st1{fill:#176961;}
	.st2{fill:#29B866;}
	.st3{fill:#A0A0A0;}
	.st4{fill:#FBAE17;}
	.st5{fill:#A1A1A1;}
	.st6{fill:#43525C;}
</style>
<title>icons_active</title>
<path class="st0" d="M10,80c4.4,0,8,3.6,8,8s-3.6,8-8,8s-8-3.6-8-8S5.6,80,10,80 M10,78C4.5,78,0,82.5,0,88s4.5,10,10,10
	s10-4.5,10-10S15.6,78,10,78L10,78z M9.2,90.2c0-0.5,0-0.9,0.2-1.4c0.3-0.4,0.6-0.7,1-1c0.3-0.3,0.6-0.6,0.8-1
	c0.2-0.3,0.3-0.6,0.3-1s-0.1-0.7-0.4-1c-0.3-0.3-0.6-0.4-1-0.4s-0.7,0.1-1,0.3c-0.3,0.2-0.4,0.6-0.4,0.9H7.2c-0.1-0.8,0.2-1.5,0.8-2
	s1.4-0.7,2.1-0.7c0.8-0.1,1.6,0.2,2.2,0.7c0.5,0.5,0.8,1.2,0.8,2c0,0.6-0.2,1.1-0.5,1.6c-0.4,0.5-0.8,1-1.3,1.3
	c-0.2,0.2-0.4,0.4-0.5,0.6c-0.1,0.3-0.1,0.6-0.1,0.9L9.2,90.2L9.2,90.2L9.2,90.2z M10.9,93H9.2v-1.6h1.7V93z"/>
<polygon class="st1" points="6,306 2,302 0,302 6,308 12,302 10,302 "/>
<path class="st0" d="M10,58C4.5,58,0,62.5,0,68s4.5,10,10,10s10-4.5,10-10S15.6,58,10,58z M10,62c1.7,0,3,1.3,3,3c0,1.7-1.3,3-3,3
	s-3-1.3-3-3S8.4,62,10,62z M16,73.3c-2.9,3.3-8,3.6-11.3,0.7c-0.3-0.2-0.5-0.5-0.7-0.7v-1c0-0.4,0.3-0.9,0.7-1.1
	c3.4-1.7,7.3-1.7,10.7,0c0.4,0.2,0.7,0.6,0.7,1.1v1H16z"/>
<path class="st0" d="M12.9,129.5l-1.2-0.5c2.4-2.8,2.2-7-0.6-9.4s-7-2.2-9.4,0.6c-2.4,2.8-2.2,7,0.6,9.4c2.5,2.2,6.3,2.2,8.8,0
	l0.5,1.2l5.2,5.2l1.3-1.3L12.9,129.5z M10.2,127.8L10,128l-0.2,0.2c-1.9,1.8-4.9,1.8-6.7-0.1c-1.8-1.9-1.8-4.9,0.1-6.7
	s4.9-1.8,6.7,0.1C11.6,123.2,11.7,125.9,10.2,127.8z"/>
<path class="st0" d="M5.8,53H17V40H5.4C4.1,40,3,41.1,3,42.4l0,0l0,0v11.2C3,54.9,4.1,56,5.4,56l0,0H17v-1.4H5.8
	c-0.4,0-0.8-0.4-0.8-0.8S5.4,53,5.8,53z M7,43.4h7V45H7V43.4z M7,46.4h7V48H7V46.4z"/>
<path class="st0" d="M11,31.1l4,3.9V21H8.6C7.7,21,7,21.7,7,22.5l0,0l0,0V35L11,31.1z"/>
<path class="st0" d="M18,4c0-1.1-0.9-2-2-2h-5L9,0H4C2.9,0,2,0.9,2,2v10c0,1.1,0.9,2,2,2h10.6L12,11.4c-1.9,1.1-4.4,0.5-5.6-1.4
	S5.9,5.6,7.9,4.4s4.4-0.5,5.6,1.4c0.8,1.3,0.8,2.9,0,4.2l3.7,3.6c0.6-0.4,0.9-1,0.9-1.6V4H18z"/>
<circle class="st0" cx="10" cy="8" r="2"/>
<path class="st2" d="M10,230.1c1.7,0,3-1.3,3-3V221c0-1.7-1.3-3-3-3s-3,1.3-3,3v6.1C7,228.8,8.4,230.1,10,230.1z"/>
<path class="st2" d="M16.9,227.1c0-0.6-0.4-1-1-1s-1,0.4-1,1c-0.1,2.7-2.4,4.8-5.1,4.6c-2.5-0.1-4.5-2.1-4.6-4.6c0-0.6-0.4-1-1-1
	s-1,0.4-1,1c0,3.4,2.5,6.3,5.9,6.8v2.1c0,0.6,0.4,1,1,1s1-0.4,1-1v-2.1C14.4,233.4,16.9,230.5,16.9,227.1z"/>
<path class="st0" d="M6,240.1v0.7c0,0.6,1.7,1.1,3,1.1s3-0.5,3-1.1v-0.7c0.2,0,0.4-0.2,0.5-0.4c0-0.4-1.6-0.7-3.5-0.7
	s-3.5,0.3-3.5,0.7C5.6,239.9,5.8,240,6,240.1z"/>
<path class="st0" d="M9,243.2c-1.3,0-3.5-0.7-3.5-1c0,0.1,0,0.2,0,0.4c0,1.9,1.6,3.5,3.5,3.5s3.5-1.6,3.5-3.5c0-0.1,0-0.2,0-0.4
	C12.5,242.5,10.3,243.2,9,243.2z"/>
<path class="st0" d="M7,249.5c0-0.5,0.1-0.9,0.4-1.3c-1.6,0.2-3.1,0.7-4.6,1.4c-0.5,0.2-0.8,0.7-0.8,1.2v2.2h5V249.5z"/>
<path class="st0" d="M17.7,248H9.4c-0.8,0-1.4,0.7-1.4,1.5l0,0l0,0v6c0,0.8,0.6,1.5,1.4,1.5l0,0h8.3c0.8,0,1.4-0.7,1.4-1.5v-6
	C19.1,248.7,18.5,248,17.7,248z M17.7,251l-4.1,3l-4.1-3v-1.5l4.1,3l4.1-3V251L17.7,251L17.7,251z"/>
<polygon class="st3" points="16,183.1 15,182 10,186.9 5.2,182.1 4.2,183.2 9,188 4.1,192.9 5.1,194 10,189.1 14.9,193.9 
	15.9,192.8 11.1,188 "/>
<rect x="1" y="102" class="st1" width="18" height="2"/>
<rect x="1" y="107" class="st1" width="18" height="2"/>
<rect x="1" y="112" class="st1" width="18" height="2"/>
<polygon class="st1" points="5,325 0,320 10,320 "/>
<polygon class="st1" points="5,315 2,312 1,312 5,316 9,312 8,312 "/>
<path class="st4" d="M9.9,273.3c-0.3-0.2-0.6-0.2-0.8,0l-4.8,3.3c-0.2,0.2-0.3,0.1-0.3-0.2l1.7-5.6c0.1-0.3,0-0.6-0.2-0.8l-4.7-3.5
	c-0.2-0.2-0.2-0.3,0.1-0.3l5.8-0.1c0.3,0,0.5-0.2,0.7-0.5l1.9-5.5c0.1-0.3,0.2-0.3,0.3,0l1.9,5.5c0.1,0.3,0.4,0.5,0.7,0.5l5.9,0.1
	c0.3,0,0.3,0.1,0.1,0.3l-4.7,3.5c-0.2,0.2-0.3,0.5-0.2,0.8l1.7,5.6c0.1,0.3,0,0.4-0.3,0.2L9.9,273.3z"/>
<path class="st5" d="M10,280.4L10,280.4 M9.5,281.9l1.4,4c0.2,0.6,0.7,1,1.4,1l4.2,0.1l-3.3,2.5c-0.5,0.4-0.7,1-0.5,1.6l1.2,4
	l-3.4-2.4c-0.5-0.3-1.2-0.3-1.7,0l-3.4,2.4l1.2-4c0.2-0.6,0-1.2-0.5-1.6L2.6,287l4.2-0.1c0.6,0,1.2-0.4,1.4-1L9.5,281.9 M9.5,279.9
	c-0.1,0-0.1,0.1-0.2,0.2l-1.9,5.5c-0.1,0.3-0.4,0.5-0.7,0.5L1,286.2c-0.3,0-0.3,0.1-0.1,0.3l4.7,3.5c0.2,0.2,0.3,0.5,0.2,0.8
	L4,296.5c0,0.2,0,0.3,0.1,0.3s0.1,0,0.2-0.1l4.8-3.3c0.3-0.2,0.6-0.2,0.8,0l4.8,3.3c0.1,0,0.1,0.1,0.2,0.1c0.1,0,0.1-0.1,0.1-0.3
	l-1.7-5.6c-0.1-0.3,0-0.6,0.2-0.8l4.7-3.5c0.2-0.2,0.2-0.3-0.1-0.3l-5.9-0.1c-0.3,0-0.5-0.2-0.7-0.5l-1.9-5.5
	C9.7,280,9.6,280,9.5,279.9L9.5,279.9L9.5,279.9L9.5,279.9z"/>
<path class="st0" d="M16.5,147.4l-5.4-5.4v3.1c-5.6,0-8.6,5.5-8.6,7.8c1.7-2.1,4.3-3.2,7-3.1h1.6v3.1L16.5,147.4z"/>
<path class="st0" d="M16.8,162H3.3c-1.2,0-2.2,0.9-2.2,2.2l0,0l0,0v8.7c0,1.2,1,2.2,2.2,2.2h13.5c1.2,0,2.2-0.9,2.2-2.2l0,0l0,0
	v-8.7C19,162.9,18,162,16.8,162z M16.8,166.3l-6.8,4.3l-6.8-4.3v-2.2l6.8,4.3l6.8-4.3V166.3L16.8,166.3L16.8,166.3z"/>
<path class="st0" d="M16.8,200H3.3c-1.2,0-2.2,0.9-2.2,2.2l0,0l0,0v8.7c0,1.2,1,2.2,2.2,2.2h13.5c1.2,0,2.2-0.9,2.2-2.2l0,0l0,0
	v-8.7C19,200.9,18,200,16.8,200z M16.8,204.3l-6.8,4.3l-6.8-4.3v-2.2l6.8,4.3l6.8-4.3V204.3L16.8,204.3L16.8,204.3z"/>
<circle class="st6" cx="10" cy="340" r="3"/>
<path class="st6" d="M10,333c-4,0-7.8,2-10,5.3l1.6,1.6c2.8-4.6,8.9-6.1,13.5-3.3c1.4,0.8,2.5,2,3.3,3.3l1.6-1.6
	C17.8,335,14.1,333,10,333z"/>
<path class="st1" d="M20,350v12c0,1.1-0.9,2-2,2H4l-4,4v-18c0-1.1,0.9-2,2-2h16C19.1,348,20,348.9,20,350z M16,352H4v2h12V352z
	 M16,356H4v2h12V356z"/>
</svg>
